<?xml version="1.0" encoding="UTF-8"?><svg id="Layer_1" xmlns="http://www.w3.org/2000/svg" xmlns:xlink="http://www.w3.org/1999/xlink" viewBox="0 0 16 16"><defs><style>.cls-1{fill:#00175a;}.cls-1,.cls-2,.cls-3,.cls-4{stroke-width:0px;}.cls-5{opacity:.8;}.cls-2{fill:url(#New_Gradient_Swatch_1);}.cls-3{fill:#002db3;}.cls-4{fill:#fff;}</style><linearGradient id="New_Gradient_Swatch_1" x1="-1.85" y1="0" x2="13.41" y2="11.89" gradientUnits="userSpaceOnUse"><stop offset=".29" stop-color="#002db3"/><stop offset=".89" stop-color="#00b3b3"/></linearGradient></defs><path class="cls-2" d="M5.67,5.84c-.08-.17-.2-.31-.37-.42-.17-.11-.32-.19-.46-.24-.14-.05-.32-.12-.55-.2-.32-.09-.53-.18-.64-.25-.11-.07-.16-.16-.16-.26,0-.09.04-.16.11-.22.07-.06.18-.09.33-.09.34,0,.58.17.73.52l1.01-.59c-.16-.35-.39-.61-.7-.8-.3-.18-.65-.27-1.05-.27-.46,0-.85.13-1.16.4-.31.27-.47.62-.47,1.05,0,.4.12.72.38.94.25.23.59.4,1.02.53.3.09.5.15.59.19.21.08.32.2.32.33,0,.21-.18.31-.55.31-.44,0-.75-.21-.93-.62l-1.03.6c.13.36.36.64.68.85s.74.32,1.23.32c.54,0,.97-.13,1.29-.39.33-.26.49-.62.49-1.08,0-.23-.04-.43-.12-.61ZM7.27,6.68v-.69h1.62v-1.11h-1.62v-.65h1.78v-1.12h-2.98v4.7h3.02v-1.13h-1.82ZM3.61,11.96v-3.53h-1.2v4.69h2.07c.06-.06.13-.12.19-.18.11-.1.2-.17.29-.21.09-.06.18-.09.27-.11h0v-.66h-1.62ZM5.67,8.42v4.27s.04.02.06.04c.05.04.1.08.14.12.05.05.09.1.12.15l.02.03v.03s.01.03.01.05h.38s.04-.06.06-.09c.03-.06.08-.11.15-.17.07-.06.13-.11.18-.14.03-.02.06-.03.09-.05v-4.24h-1.2ZM10.23,9.58v-1.16h-2.88v4.13s.05,0,.07.01c.09.02.17.07.25.14.12.09.21.19.25.3.01.03.02.07.03.1h.46s.01-.03.02-.04c0,0,0,0,0,0,0-.06.03-.12.06-.17.02-.03.03-.06.05-.09v-1.3h1.65v-1.16h-1.65v-.76h1.68ZM12.02,11.99h0c.01.08.02.16.02.24,0,.05-.01.1-.03.16.03-.03.05-.06.08-.09.15-.16.29-.23.43-.23.15,0,.28.07.4.21.04.05.08.09.11.13.04.05.06.12.09.2.02.07.03.16.05.29v.05s.07-.04.11-.06c.06-.03.14-.06.23-.08l.24-.06v-.77h-1.71ZM13.69,9.54v-1.12h-2.99v4.69h.27c.03-.16.07-.38.14-.65l.12-.48c.02-.06.03-.11.06-.14,0-.01.02-.03.02-.04l.05-.1.18-.04s.04,0,.06,0c.08,0,.16.03.24.09.03.02.05.04.07.06v-.52h1.62v-1.11h-1.62v-.65h1.78ZM12.97,4.76c-.05-.19-.39-1.48-.43-2.01-.02-.18-.01-.37.06-.52.07-.16.32-.45.36-.48-.02-.03-.07-.07-.11-.08-.22-.06-.43-.04-.65.02-.63.17-1.07.6-1.33,1.24-.16.4-.42,1.26-.46,1.38l-1.11,3.5h1.29l.2-.67h1.59l.22.67h1.23s-.64-2.18-.87-3.05ZM11.1,6.11l.47-1.59.47,1.59h-.94Z"/><path class="cls-1" d="M15.99,3.58h-.44V1.41c0-.39-.32-.71-.71-.71h-2.16v-.44h2.16c.63,0,1.15.52,1.15,1.15v2.17Z"/><path class="cls-1" d="M14.85,15.39h-2.17v-.44h2.17c.39,0,.71-.32.71-.71v-2.16h.44v2.16c0,.63-.52,1.15-1.15,1.15Z"/><path class="cls-1" d="M3.31,15.39H1.16C.52,15.39,0,14.87,0,14.24v-2.17h.44v2.17c0,.39.32.71.71.71h2.16v.44Z"/><path class="cls-1" d="M.44,3.57h-.44V1.41C0,.78.52.26,1.15.26h2.17v.44H1.15c-.39,0-.71.32-.71.71v2.16Z"/><path class="cls-3" d="M5.79,13.45s-.02.08-.05.08c-.02,0-.03.02-.02.04,0,.04-.01.1-.07.16-.07.07-.13.12-.19.14-.06.02-.1,0-.12-.04-.02-.01-.03-.03-.03-.04,0-.01-.02-.02-.03-.01-.03-.02-.05-.04-.05-.07,0-.02,0-.04.02-.08.02,0,.04-.03.07-.09.02-.05.04-.11.06-.17.02-.06.02-.1.02-.12,0-.02-.01-.04-.02-.04,0,0-.03,0-.06,0-.05.04-.12.08-.19.14-.07.06-.14.11-.21.17-.06.05-.11.1-.14.14-.01.03-.02.05-.02.06s-.01.01-.03.02c0-.02-.02,0-.04.03-.02.04-.05.09-.07.15-.03.06-.06.12-.08.18-.03.06-.04.1-.05.13,0,.01-.01.04-.01.08,0,.04,0,.08,0,.11,0,.05,0,.09.03.1.02.01.08.04.16.09.17.08.3.15.4.2.1.05.17.1.22.14.05.04.08.07.1.11.1.11.14.2.13.27s-.08.14-.18.22c-.04.03-.1.06-.2.09-.09.03-.19.06-.29.08-.1.02-.18.03-.24.04-.09-.02-.17-.05-.25-.09-.08-.04-.14-.08-.16-.11,0-.04,0-.06,0-.08,0-.02.04-.03.11-.04.06,0,.16-.02.3-.03.05,0,.11-.03.18-.05.07-.02.14-.05.2-.08.06-.03.09-.06.1-.08.02,0,.02-.01,0-.02-.01-.01-.03-.02-.05-.04-.02,0-.04,0-.06-.01-.02-.01-.04-.01-.06-.01,0-.02-.03-.04-.07-.06-.04-.02-.09-.03-.13-.04-.11-.06-.2-.11-.28-.16-.08-.05-.11-.08-.1-.11,0-.02,0-.03,0-.03-.03,0-.07-.03-.12-.11s-.08-.15-.1-.21c0-.05,0-.12,0-.2.01-.08.04-.17.07-.26.03-.09.07-.17.11-.24.06-.09.14-.18.23-.28.1-.1.19-.19.29-.28,0,0,0,0,0,0,.1-.09.18-.15.25-.18.05-.03.11-.06.16-.07.01,0,.03,0,.04-.01.06-.01.12,0,.18,0,.05.01.09.03.13.07.03.02.05.04.08.06.01.01.03.02.04.03.03.03.06.07.07.09,0,0,0,0,0,0,0,.05.02.1.02.16,0,.06,0,.12,0,.16Z"/><path class="cls-3" d="M7.89,14.27s-.01.05-.03.07c-.01.03-.04.07-.07.12-.03.05-.08.1-.13.17-.02,0-.03,0-.04.02-.01.01-.03.03-.04.05-.03.04-.05.06-.08.08-.03.02-.05.03-.06.04-.03.02-.05.04-.06.04-.01,0-.02.02-.02.03-.03.05-.08.09-.14.11-.06.03-.14.05-.26.08-.09.02-.16.03-.21.03-.05,0-.09,0-.11-.02-.03-.01-.06-.03-.1-.05-.02-.03-.05-.06-.08-.09s-.06-.05-.08-.07c-.03-.06-.05-.14-.07-.24-.02-.1-.03-.21-.03-.33s.01-.24.03-.34c0-.04.02-.09.03-.16,0-.02.01-.08.05-.16.04-.09.08-.18.12-.28.05-.1.09-.17.12-.22,0-.01.02-.02.03-.04.02-.03.05-.06.09-.09.04-.04.08-.07.11-.09.01,0,.02-.02.03-.02.04-.03.09-.05.13-.07.05-.02.1-.04.16-.05.05-.01.11,0,.16,0,0,0,0,0,.01,0,.05.01.11.05.17.1.09.06.15.12.17.2,0,0,0,.02,0,.03.02.06.03.13.03.2,0,.09-.02.16-.04.21-.02.05-.06.08-.1.08-.04,0-.1-.02-.16-.07-.02-.03-.04-.06-.04-.08s0-.06,0-.11c0-.06,0-.12-.04-.18-.03-.06-.06-.09-.1-.08-.05.01-.11.05-.16.11-.05.06-.11.13-.16.22-.02.04-.05.1-.09.18-.04.08-.07.16-.11.25s-.06.18-.08.26c-.02.15-.04.31-.06.48,0,.02.01.03.02.04.01.01.02.03.03.04,0,.05.05.08.11.1.05.02.11.03.17.01.06-.01.14-.05.22-.1.06-.05.11-.1.16-.17.05-.07.1-.13.16-.18.04-.04.07-.07.09-.1.02-.03.04-.03.04-.01,0,.02.01.02.02.02.01,0,.02-.01.04-.03.02-.04.04-.07.07-.08.03-.02.05-.03.08-.03.02,0,.04,0,.04.01,0,.04.01.07.04.09,0,.02,0,.04,0,.07Z"/><path class="cls-4" d="M10.91,14s-.03-.08-.06-.09c-.03-.02-.07-.02-.1-.02-.06,0-.13,0-.2-.04-.07-.03-.12-.06-.15-.1-.07-.08-.13-.18-.19-.3-.05-.12-.07-.27-.05-.44l.05-.33-.27-.16s-.1-.06-.14-.08c-.05-.03-.09-.05-.12-.08-.03-.02-.06-.04-.07-.05-.08-.04-.16-.05-.25-.01-.09.03-.17.08-.25.16-.04.03-.08.08-.13.15-.05.07-.1.14-.15.21-.05.07-.08.14-.11.19-.03.06-.04.1-.04.12v.04s-.02.01-.03.03c0,.02-.01.03,0,.05-.01.02-.03.06-.05.12-.02.06-.05.11-.07.15-.05.16-.09.31-.12.45-.03.14-.05.26-.06.35,0,.09,0,.15.03.17.02.01.03.03.04.05,0,.02.01.04.01.05,0,.02.02.03.05.05.03.01.05.04.08.07.16.06.33.02.53-.12s.41-.4.64-.75c.02-.03.05-.08.08-.14.03-.06.06-.11.07-.13,0,.02.03.06.07.12.04.06.07.11.09.13.14.17.27.29.41.35.13.06.27.07.4.02.04-.02.07-.04.08-.07.01-.03.01-.06,0-.1ZM9.68,13.09c-.06.14-.15.3-.27.47-.11.17-.23.34-.35.48-.09.1-.17.18-.25.23-.08.05-.13.06-.13.03.03-.17.06-.29.09-.39.07-.22.15-.43.23-.62.09-.19.17-.35.26-.47.09-.12.16-.19.21-.2.03,0,.08,0,.13.03.05.03.11.08.17.17l-.09.25Z"/><path class="cls-3" d="M10.91,14s-.03-.08-.06-.09c-.03-.02-.07-.02-.1-.02-.06,0-.13,0-.2-.04-.07-.03-.12-.06-.15-.1-.07-.08-.13-.18-.19-.3-.05-.12-.07-.27-.05-.44l.05-.33-.27-.16s-.1-.06-.14-.08c-.05-.03-.09-.05-.12-.08-.03-.02-.06-.04-.07-.05-.08-.04-.16-.05-.25-.01-.09.03-.17.08-.25.16-.04.03-.08.08-.13.15-.05.07-.1.14-.15.21-.05.07-.08.14-.11.19-.03.06-.04.1-.04.12v.04s-.02.01-.03.03c0,.02-.01.03,0,.05-.01.02-.03.06-.05.12-.02.06-.05.11-.07.15-.05.16-.09.31-.12.45-.03.14-.05.26-.06.35,0,.09,0,.15.03.17.02.01.03.03.04.05,0,.02.01.04.01.05,0,.02.02.03.05.05.03.01.05.04.08.07.16.06.33.02.53-.12s.41-.4.64-.75c.02-.03.05-.08.08-.14.03-.06.06-.11.07-.13,0,.02.03.06.07.12.04.06.07.11.09.13.14.17.27.29.41.35.13.06.27.07.4.02.04-.02.07-.04.08-.07.01-.03.01-.06,0-.1ZM9.68,13.09c-.06.14-.15.3-.27.47-.11.17-.23.34-.35.48-.09.1-.17.18-.25.23-.08.05-.13.06-.13.03.03-.17.06-.29.09-.39.07-.22.15-.43.23-.62.09-.19.17-.35.26-.47.09-.12.16-.19.21-.2.03,0,.08,0,.13.03.05.03.11.08.17.17l-.09.25Z"/><path class="cls-4" d="M12.02,11.99h-.11v-.17s.06.07.08.11l.02.03v.03Z"/><path class="cls-3" d="M13.54,13.12s-.01.07-.02.11c-.02.07-.05.13-.09.2-.04.06-.09.12-.14.16-.05.05-.11.07-.17.09-.05.01-.12,0-.2-.05-.08-.04-.14-.09-.18-.15-.03-.04-.04-.09-.06-.14-.01-.04-.03-.11-.05-.21,0-.03-.01-.05-.02-.09l-.05-.23c-.01-.07-.04-.08-.07-.05-.03.03-.06.06-.08.09-.05.07-.1.14-.16.23,0,.02-.02.03-.03.05-.04.07-.09.14-.13.21-.15.24-.28.42-.39.54-.11.12-.18.18-.23.19-.02,0-.04,0-.08-.02-.04-.02-.06-.03-.08-.04-.03-.03-.06-.06-.07-.09-.01-.03-.03-.11-.05-.22-.03-.13-.03-.28,0-.45,0-.04.01-.08.02-.12.03-.15.07-.35.13-.59l.12-.48s.02-.06.03-.08c.01-.02.02-.04.03-.06.02,0,.04,0,.06-.01.03,0,.07,0,.11.04.04.03.07.07.1.11.01.05.01.11.01.17,0,.06-.04.16-.1.29-.02.05-.04.14-.07.25-.03.12-.04.22-.04.3,0,0,0,.02-.01.05,0,0,0,0,0,0,0,.03-.01.07-.02.11,0,.04-.02.08-.03.12v.14s.24-.37.24-.37l.09-.14c.16-.23.29-.4.39-.51.1-.11.19-.16.27-.16.07,0,.14.04.21.13.04.04.07.08.09.11.02.03.04.08.06.13s.03.15.04.26l.03.18.04.21c.06-.03.11-.05.14-.08.03-.02.07-.05.11-.07.03-.02.06-.04.1-.06,0,0,.01,0,.02,0,.05-.02.11-.05.18-.06,0,.02,0,.05,0,.07Z"/><g class="cls-5"><path class="cls-4" d="M11.23,2.97s-.01,0-.02,0c-.02,0-.03-.03-.02-.06.23-.56.71-.83.98-.94.02,0,.05,0,.06.02,0,.02,0,.05-.02.06-.25.11-.71.37-.93.9,0,.02-.02.03-.04.03Z"/></g></svg>