<?xml version="1.0" encoding="UTF-8"?><svg id="Layer_1" xmlns="http://www.w3.org/2000/svg" xmlns:xlink="http://www.w3.org/1999/xlink" viewBox="0 0 16 16"><defs><style>.cls-1{fill:#00175a;}.cls-1,.cls-2,.cls-3{stroke-width:0px;}.cls-4{opacity:.8;}.cls-2{fill:url(#New_Gradient_Swatch_1);}.cls-3{fill:#fff;}</style><linearGradient id="New_Gradient_Swatch_1" x1="-3.03" y1="-.32" x2="14.04" y2="12.97" gradientUnits="userSpaceOnUse"><stop offset=".29" stop-color="#002db3"/><stop offset=".89" stop-color="#00b3b3"/></linearGradient></defs><path class="cls-2" d="M5.46,6.83c0,.51-.18.9-.54,1.19-.36.29-.83.43-1.43.43-.55,0-1-.12-1.36-.35-.36-.23-.61-.54-.75-.94l1.13-.66c.19.46.53.69,1.02.69.4,0,.61-.11.61-.34,0-.15-.12-.27-.35-.37-.1-.04-.31-.11-.65-.21-.47-.14-.85-.33-1.12-.58-.28-.25-.41-.59-.41-1.04,0-.48.17-.86.51-1.16.34-.3.77-.44,1.28-.44.43,0,.82.1,1.15.3.33.2.59.5.77.88l-1.11.65c-.16-.38-.43-.58-.81-.58-.16,0-.28.03-.36.1s-.12.15-.12.25c0,.11.06.21.18.29.12.08.36.17.7.27.25.09.45.16.6.22.16.06.32.14.51.26.18.12.32.28.41.46.09.19.13.41.13.67ZM9.1,7.09h-2v-.76h1.78v-1.22h-1.78v-.72h1.97v-1.23h-3.29v5.17h3.32v-1.24ZM3.06,9.01h-1.32v5.17h3.1v-1.28h-1.78v-3.89ZM5.32,14.18h1.32v-5.17h-1.32v5.17ZM7.18,14.18h1.32v-1.77h1.82v-1.28h-1.82v-.84h1.85v-1.28h-3.18v5.17ZM12.2,12.18h1.78v-1.22h-1.78v-.72h1.97v-1.23h-3.29v5.17h3.32v-1.24h-2v-.76ZM10.97,7.59l-.22.74h-1.42l1.23-3.85c.04-.14.33-1.08.51-1.53.29-.71.77-1.18,1.46-1.37.23-.06.47-.09.71-.02.04.01.1.05.12.09-.04.03-.32.35-.39.52s-.08.38-.06.58c.05.59.42,2,.48,2.21.25.96.95,3.36.95,3.36h-1.35l-.25-.74h-1.75ZM11.31,6.46h1.04l-.52-1.75-.52,1.75Z"/><g class="cls-4"><path class="cls-3" d="M11.46,3s-.01,0-.02,0c-.02-.01-.04-.04-.03-.06.26-.61.79-.91,1.08-1.04.02-.01.05,0,.06.03.01.02,0,.05-.03.06-.28.12-.78.4-1.03.99,0,.02-.03.03-.04.03Z"/></g><path class="cls-1" d="M16,3.34h-.44V1.17c0-.39-.32-.71-.71-.71h-2.16V.02h2.16c.63,0,1.15.52,1.15,1.15v2.17Z"/><path class="cls-1" d="M.44,3.33h-.44V1.17C0,.54.52.02,1.15.02h2.17v.44H1.15c-.39,0-.71.32-.71.71v2.16Z"/><path class="cls-1" d="M0,12.68h.44v2.17c0,.39.32.71.71.71h2.16v.44H1.15c-.63,0-1.15-.52-1.15-1.15v-2.17Z"/><path class="cls-1" d="M15.56,12.69h.44v2.16c0,.63-.52,1.15-1.15,1.15h-2.17v-.44h2.17c.39,0,.71-.32.71-.71v-2.16Z"/></svg>