<?xml version="1.0" encoding="UTF-8"?><svg id="Layer_1" xmlns="http://www.w3.org/2000/svg" xmlns:xlink="http://www.w3.org/1999/xlink" viewBox="0 0 16 16"><defs><style>.cls-1{fill:url(#New_Gradient_Swatch_1-3);}.cls-1,.cls-2,.cls-3,.cls-4{stroke-width:0px;}.cls-2{fill:url(#New_Gradient_Swatch_1);}.cls-3{fill:url(#New_Gradient_Swatch_1-2);}.cls-4{fill:#002db3;}</style><linearGradient id="New_Gradient_Swatch_1" x1=".45" y1="8" x2="15.53" y2="8" gradientUnits="userSpaceOnUse"><stop offset=".29" stop-color="#002db3"/><stop offset=".89" stop-color="#00b3b3"/></linearGradient><linearGradient id="New_Gradient_Swatch_1-2" x1="3.48" y1="7.98" x2="13.16" y2="7.98" xlink:href="#New_Gradient_Swatch_1"/><linearGradient id="New_Gradient_Swatch_1-3" x1="8.61" y1="6.29" x2="15.55" y2="6.29" xlink:href="#New_Gradient_Swatch_1"/></defs><path class="cls-2" d="M15.39,11.6c-2.44,5.31-9.8,5.91-13.29,1.28C-2.19,7.2,2.45-.89,9.53.08c2.61.35,4.98,2.15,6,4.56,0,0-.93.45-.93.45C11.35-.77,2.57,1.1,2.31,7.85c-.11,4.53,4.67,7.74,8.85,6.02,1.35-.51,2.51-1.49,3.31-2.76l.91.48h0Z"/><path class="cls-3" d="M8.58,13.07c-1.9,0-3.72-1.06-4.6-2.89-1.21-2.53-.15-5.58,2.38-6.79,1.23-.59,2.61-.66,3.89-.21,1.28.45,2.31,1.37,2.9,2.6l-.76.36c-1.01-2.11-3.56-3.01-5.67-1.99-2.11,1.01-3.01,3.56-1.99,5.67,1.01,2.11,3.56,3.01,5.67,1.99.8-.39,1.45-1,1.88-1.77l.73.4c-.51.93-1.29,1.66-2.25,2.12-.71.34-1.46.5-2.2.5Z"/><path class="cls-4" d="M9.22,9.33c-.75.36-1.64.04-2-.71s-.04-1.64.7-2,1.64-.04,2,.7c.24.51.18,1.08-.12,1.51-.14.21-.34.38-.58.5Z"/><path class="cls-1" d="M15.55,4.68c-1.08.69-2.18,1.35-3.29,1.98-1.09.72-2.27,1.3-3.6,1.33,0,0-.04-.09-.04-.09.86-1.02,2.05-1.58,3.29-1.98,1.19-.48,2.39-.92,3.6-1.33,0,0,.04.09.04.09h0Z"/></svg>