<?xml version="1.0" encoding="UTF-8"?><svg id="Layer_1" xmlns="http://www.w3.org/2000/svg" xmlns:xlink="http://www.w3.org/1999/xlink" viewBox="0 0 16 16"><defs><style>.cls-1{fill:none;}.cls-1,.cls-2,.cls-3,.cls-4{stroke-width:0px;}.cls-5{opacity:.8;}.cls-2{fill:url(#New_Gradient_Swatch_1);}.cls-6{clip-path:url(#clippath);}.cls-3{fill:url(#New_Gradient_Swatch_1-2);}.cls-4{fill:#fff;}</style><clipPath id="clippath"><circle class="cls-1" cx="8" cy="8" r="8"/></clipPath><linearGradient id="New_Gradient_Swatch_1" x1="-4.86" y1="7.62" x2="16" y2="23.85" gradientUnits="userSpaceOnUse"><stop offset=".29" stop-color="#002db3"/><stop offset=".89" stop-color="#00b3b3"/></linearGradient><linearGradient id="New_Gradient_Swatch_1-2" x1="0" y1="8" x2="16" y2="8" xlink:href="#New_Gradient_Swatch_1"/></defs><g class="cls-6"><path class="cls-2" d="M12.07,15.54c-.18-.7-1.4-5.36-1.57-7.28-.06-.64-.04-1.32.21-1.9.25-.58,1.15-1.62,1.3-1.72-.08-.12-.26-.26-.4-.3-.78-.23-1.57-.15-2.34.06-2.28.62-3.86,2.16-4.8,4.51-.59,1.47-1.52,4.56-1.67,5.02L-1.24,26.59H3.45l.73-2.44h5.77l.81,2.44h4.46s-2.32-7.91-3.14-11.05ZM5.29,20.43l1.69-4.75,1.72,4.75h-3.41Z"/><g class="cls-5"><path class="cls-4" d="M5.78,9.05s-.04,0-.06-.01c-.08-.03-.12-.13-.08-.21.85-2.02,2.59-3.01,3.55-3.42.08-.03.17,0,.21.08.03.08,0,.17-.08.21-.92.39-2.58,1.33-3.38,3.25-.03.06-.08.1-.15.1Z"/></g></g><path class="cls-3" d="M8,1c3.86,0,7,3.14,7,7s-3.14,7-7,7S1,11.86,1,8,4.14,1,8,1M8,0C3.58,0,0,3.58,0,8s3.58,8,8,8,8-3.58,8-8S12.42,0,8,0h0Z"/></svg>