<?xml version="1.0" encoding="UTF-8"?><svg id="Layer_1" xmlns="http://www.w3.org/2000/svg" xmlns:xlink="http://www.w3.org/1999/xlink" viewBox="0 0 250 250"><defs><style>.cls-1{fill:#00175a;}.cls-1,.cls-2,.cls-3,.cls-4{stroke-width:0px;}.cls-5{opacity:.8;}.cls-2{fill:url(#New_Gradient_Swatch_1);}.cls-3{fill:#002db3;}.cls-4{fill:#fff;}</style><linearGradient id="New_Gradient_Swatch_1" x1="-8.03" y1="17.06" x2="198.1" y2="177.52" gradientUnits="userSpaceOnUse"><stop offset=".29" stop-color="#002db3"/><stop offset=".89" stop-color="#00b3b3"/></linearGradient></defs><path class="cls-2" d="M93.53,95.8c-1.08-2.32-2.74-4.22-4.98-5.7-2.24-1.47-4.31-2.56-6.22-3.24-1.9-.68-4.36-1.57-7.37-2.66-4.29-1.27-7.16-2.39-8.63-3.37-1.47-.97-2.21-2.16-2.21-3.54,0-1.21.49-2.21,1.5-3,.99-.79,2.46-1.19,4.39-1.19,4.58,0,7.88,2.36,9.87,7.07l13.58-7.97c-2.18-4.71-5.31-8.29-9.42-10.78-4.1-2.47-8.81-3.71-14.12-3.71-6.28,0-11.52,1.81-15.71,5.43-4.19,3.63-6.29,8.36-6.29,14.22,0,5.44,1.68,9.68,5.06,12.73,3.38,3.05,7.97,5.42,13.77,7.1,4.09,1.19,6.74,2.03,7.94,2.52,2.86,1.14,4.29,2.64,4.29,4.49,0,2.81-2.47,4.23-7.43,4.23-5.97,0-10.14-2.81-12.5-8.42l-13.85,8.06c1.75,4.83,4.83,8.66,9.23,11.49s9.96,4.26,16.67,4.26c7.24,0,13.07-1.75,17.48-5.25,4.4-3.51,6.61-8.36,6.61-14.58,0-3.13-.54-5.85-1.64-8.17ZM115.17,107.23v-9.33h21.82v-14.95h-21.82v-8.79h24.08v-15.12h-40.29v63.39h40.74v-15.2h-24.53ZM65.77,178.4v-47.71h-16.21v63.37h27.9c.85-.85,1.7-1.65,2.54-2.4,1.47-1.3,2.76-2.24,3.92-2.85,1.22-.75,2.45-1.25,3.64-1.5h.02v-8.92h-21.82ZM93.48,130.69v57.7c.27.15.54.33.81.53.72.54,1.33,1.07,1.9,1.61.71.71,1.22,1.37,1.58,2.04l.21.41.08.45c.04.21.07.42.11.64h5.13c.26-.47.52-.87.77-1.22.47-.75,1.12-1.52,2-2.34.9-.84,1.7-1.46,2.45-1.92.39-.22.77-.45,1.17-.65v-57.24h-16.21ZM155.15,146.36v-15.66h-38.94v55.75c.34.04.67.11,1,.2,1.15.32,2.3.98,3.39,1.93,1.67,1.17,2.79,2.53,3.33,4.07.16.46.29.93.39,1.41h6.27c.07-.2.16-.4.27-.59.02-.04.04-.06.05-.08.12-.8.46-1.57.82-2.3.21-.4.44-.81.69-1.25v-17.51h22.27v-15.66h-22.27v-10.32h22.72ZM179.26,178.86l.02.13c.2.97.27,2.01.21,3.11-.02.62-.17,1.34-.44,2.17.38-.44.73-.82,1.07-1.18,2.06-2.11,3.89-3.11,5.78-3.14,2.06,0,3.82.97,5.34,2.86.59.64,1.06,1.22,1.44,1.78.48.73.87,1.63,1.17,2.72.26.94.46,2.2.62,3.95l.13.67c.39-.25.85-.51,1.33-.75.87-.45,1.88-.82,3.12-1.14l3.23-.84v-10.33h-23.02ZM201.84,145.8v-15.11h-40.3v63.37h3.65c.37-2.2.97-5.08,1.83-8.72l1.6-6.47c.24-.84.47-1.44.75-1.94.12-.2.21-.38.31-.57l.67-1.41,2.39-.48c.28-.06.55-.08.85-.08,1.11,0,2.2.41,3.24,1.24.34.27.66.57.93.87v-6.97h21.82v-14.95h-21.82v-8.79h24.08ZM192.08,81.27c-.67-2.6-5.21-19.96-5.84-27.13-.21-2.37-.14-4.93.78-7.08.93-2.16,4.3-6.05,4.84-6.42-.28-.45-.97-.95-1.51-1.11-2.92-.87-5.84-.55-8.72.24-8.49,2.31-14.39,8.04-17.89,16.79-2.19,5.46-5.68,17.01-6.23,18.69l-15.03,47.2h17.47l2.71-9.1h21.48l3.01,9.1h16.61s-8.66-29.48-11.68-41.19ZM166.82,99.48l6.31-21.45,6.4,21.45h-12.71Z"/><path class="cls-1" d="M232.88,65.38h-5.89v-29.35c0-5.31-4.32-9.63-9.63-9.63h-29.12v-5.89h29.12c8.56,0,15.52,6.96,15.52,15.52v29.35Z"/><path class="cls-1" d="M217.48,224.76h-29.35v-5.89h29.35c5.31,0,9.63-4.32,9.63-9.63v-29.11h5.89v29.11c0,8.56-6.96,15.52-15.52,15.52Z"/><path class="cls-1" d="M61.75,224.76h-29.11c-8.56,0-15.52-6.96-15.52-15.52v-29.35h5.89v29.35c0,5.31,4.32,9.63,9.63,9.63h29.11v5.89Z"/><path class="cls-1" d="M22.89,65.14h-5.89v-29.11c0-8.56,6.96-15.52,15.52-15.52h29.35v5.89h-29.35c-5.31,0-9.63,4.32-9.63,9.63v29.11Z"/><path class="cls-3" d="M95.22,198.52c-.07.66-.31,1.02-.69,1.11-.27.11-.38.31-.32.59.11.55-.18,1.28-.88,2.18-.92.94-1.75,1.55-2.51,1.85-.75.31-1.28.09-1.6-.6-.21-.19-.37-.35-.46-.52-.08-.15-.24-.21-.46-.16-.41-.27-.65-.6-.72-.99-.05-.22.06-.57.32-1.02.27-.06.58-.45.9-1.18.32-.74.59-1.52.8-2.36.21-.82.29-1.38.24-1.66-.07-.33-.15-.52-.24-.57-.11-.04-.38-.01-.82.08-.72.49-1.58,1.13-2.59,1.91-1,.79-1.94,1.54-2.81,2.27-.87.72-1.5,1.35-1.85,1.9-.15.44-.25.69-.28.79s-.16.16-.39.21c-.05-.22-.21-.09-.49.4-.28.49-.61,1.15-1,1.99-.39.84-.75,1.65-1.08,2.45-.34.79-.59,1.38-.74,1.75-.09.14-.15.48-.19,1.05-.02.55,0,1.06.08,1.51-.08.72.04,1.18.37,1.37.33.2,1.05.6,2.16,1.19,2.25,1.07,4.03,1.97,5.34,2.7,1.32.73,2.31,1.34,2.99,1.85.68.51,1.13,1,1.34,1.47,1.34,1.48,1.91,2.71,1.7,3.69s-1.01,1.94-2.39,2.92c-.51.39-1.39.8-2.64,1.22-1.26.42-2.56.78-3.89,1.07-1.34.29-2.41.47-3.22.52-1.15-.24-2.28-.65-3.39-1.21-1.1-.57-1.84-1.07-2.21-1.52-.11-.51-.09-.87.04-1.1.13-.24.6-.41,1.43-.55.81-.13,2.17-.26,4.06-.41.67-.13,1.5-.35,2.48-.67.99-.31,1.88-.66,2.72-1.06.81-.4,1.25-.78,1.3-1.13.28-.06.32-.16.11-.33-.2-.16-.45-.33-.71-.52-.22.05-.49,0-.81-.14-.33-.14-.6-.19-.82-.14-.05-.28-.38-.54-.99-.8-.6-.26-1.2-.45-1.8-.57-1.44-.75-2.69-1.46-3.75-2.1-1.05-.62-1.5-1.11-1.33-1.44-.05-.22-.07-.37-.08-.41-.39.07-.94-.4-1.64-1.43s-1.14-1.99-1.32-2.89c-.13-.67-.11-1.55.08-2.67.19-1.12.49-2.3.95-3.56.45-1.25.97-2.31,1.54-3.18.82-1.15,1.87-2.43,3.17-3.83,1.28-1.38,2.57-2.63,3.86-3.78.01-.02.04-.04.05-.05,1.32-1.17,2.45-1.99,3.39-2.47.73-.46,1.43-.79,2.11-.99.2-.06.39-.12.59-.15.87-.18,1.68-.13,2.44.13.61.16,1.2.47,1.79.91.39.28.74.58,1.07.87.18.15.34.32.51.47.47.47.8.88.99,1.25,0,.01,0,.02.01.04.12.66.21,1.4.26,2.23.06.84.05,1.58-.04,2.23Z"/><path class="cls-3" d="M123.55,209.69c-.07.39-.19.72-.38.99-.2.45-.52.98-.94,1.59-.44.61-1.02,1.37-1.78,2.27-.24-.01-.44.08-.59.29-.16.2-.34.45-.52.71-.37.48-.73.86-1.08,1.13-.35.28-.65.44-.87.48-.34.31-.61.51-.79.6-.19.09-.26.25-.21.47-.45.67-1.06,1.19-1.84,1.54-.77.37-1.94.69-3.51,1.01-1.24.24-2.17.37-2.8.38-.64.01-1.15-.06-1.53-.22-.38-.15-.84-.38-1.35-.68-.32-.4-.69-.82-1.13-1.26s-.79-.74-1.06-.93c-.39-.79-.69-1.86-.94-3.22-.25-1.34-.37-2.84-.37-4.46s.14-3.18.44-4.63c.13-.49.28-1.22.44-2.18-.06-.28.16-1.02.65-2.23.49-1.2,1.05-2.48,1.68-3.83.64-1.35,1.18-2.33,1.64-2.96.09-.16.21-.33.35-.51.28-.39.68-.81,1.18-1.27.53-.49,1.01-.91,1.46-1.22.16-.11.31-.21.46-.29.58-.35,1.17-.67,1.77-.97.62-.29,1.34-.53,2.18-.69.73-.14,1.44-.13,2.12.04.06.01.11.02.17.04.74.2,1.51.66,2.28,1.38,1.2.81,1.98,1.68,2.32,2.64.04.12.08.24.11.37.26.84.38,1.72.35,2.64-.06,1.18-.25,2.11-.58,2.78-.33.68-.78,1.05-1.35,1.11-.57.06-1.3-.24-2.18-.88-.32-.4-.51-.75-.57-1.06s-.05-.79.06-1.46c.07-.82-.09-1.64-.48-2.43-.39-.8-.84-1.15-1.34-1.05-.73.14-1.46.62-2.2,1.45-.74.81-1.46,1.79-2.17,2.92-.31.52-.72,1.32-1.24,2.38-.51,1.06-.99,2.2-1.45,3.43s-.81,2.39-1.06,3.49c-.25,1.98-.51,4.15-.79,6.54.05.22.15.42.33.59.19.16.29.37.34.59.13.67.62,1.12,1.5,1.35.68.27,1.46.34,2.31.2.85-.14,1.83-.61,2.94-1.41.8-.62,1.54-1.39,2.21-2.27.67-.9,1.39-1.71,2.18-2.45.53-.51.95-.94,1.27-1.3.31-.35.48-.41.53-.19.04.22.14.32.32.28.16-.04.33-.19.52-.45.25-.52.55-.88.92-1.11.37-.21.69-.34,1.01-.38.31-.04.48.04.52.2-.01.53.19.93.59,1.2.05.22.04.53-.04.92Z"/><path class="cls-4" d="M164.25,206.01c-.13-.62-.41-1.02-.86-1.22-.45-.21-.91-.29-1.35-.26-.81.05-1.71-.13-2.69-.52-.98-.39-1.67-.86-2.07-1.41-.98-1.08-1.81-2.44-2.51-4.05-.69-1.6-.91-3.6-.62-5.98l.67-4.5-3.65-2.16c-.66-.39-1.31-.78-1.93-1.14-.62-.38-1.18-.71-1.65-1.02-.47-.32-.8-.54-1-.67-1.05-.55-2.18-.62-3.4-.2-1.22.42-2.36,1.13-3.37,2.16-.49.45-1.08,1.13-1.78,2.06-.68.92-1.34,1.86-1.97,2.83-.62.98-1.13,1.85-1.53,2.63-.4.78-.57,1.31-.51,1.58l.09.51c-.22.05-.4.19-.53.41-.13.24-.16.46-.13.68-.18.27-.41.81-.72,1.63-.31.82-.64,1.5-.99,2.04-.68,2.17-1.24,4.22-1.66,6.14-.44,1.92-.69,3.51-.8,4.78-.09,1.27.04,2.05.38,2.33.27.18.44.39.52.64.08.25.14.48.19.71.05.22.26.42.65.61.39.19.73.48,1.05.88,2.14.86,4.52.31,7.14-1.64s5.5-5.34,8.68-10.16c.27-.4.64-1.04,1.1-1.92.47-.87.79-1.47.95-1.8.12.27.44.84.99,1.68.54.85.97,1.43,1.26,1.71,1.86,2.32,3.69,3.86,5.51,4.68,1.81.8,3.63.91,5.43.31.54-.21.88-.52,1.05-.9.15-.39.18-.86.07-1.41ZM147.67,193.76c-.85,1.92-2.04,4.04-3.58,6.38-1.54,2.36-3.1,4.52-4.69,6.52-1.18,1.4-2.32,2.43-3.44,3.09-1.12.66-1.72.8-1.8.4.42-2.24.81-3.97,1.15-5.21.92-2.98,1.97-5.75,3.14-8.3,1.18-2.57,2.34-4.66,3.51-6.29,1.15-1.63,2.1-2.52,2.83-2.66.45-.09,1.05.05,1.78.39.74.35,1.52,1.11,2.34,2.28l-1.25,3.39Z"/><path class="cls-3" d="M164.25,206.01c-.13-.62-.41-1.02-.86-1.22-.45-.21-.91-.29-1.35-.26-.81.05-1.71-.13-2.69-.52-.98-.39-1.67-.86-2.07-1.41-.98-1.08-1.81-2.44-2.51-4.05-.69-1.6-.91-3.6-.62-5.98l.67-4.5-3.65-2.16c-.66-.39-1.31-.78-1.93-1.14-.62-.38-1.18-.71-1.65-1.02-.47-.32-.8-.54-1-.67-1.05-.55-2.18-.62-3.4-.2-1.22.42-2.36,1.13-3.37,2.16-.49.45-1.08,1.13-1.78,2.06-.68.92-1.34,1.86-1.97,2.83-.62.98-1.13,1.85-1.53,2.63-.4.78-.57,1.31-.51,1.58l.09.51c-.22.05-.4.19-.53.41-.13.24-.16.46-.13.68-.18.27-.41.81-.72,1.63-.31.82-.64,1.5-.99,2.04-.68,2.17-1.24,4.22-1.66,6.14-.44,1.92-.69,3.51-.8,4.78-.09,1.27.04,2.05.38,2.33.27.18.44.39.52.64.08.25.14.48.19.71.05.22.26.42.65.61.39.19.73.48,1.05.88,2.14.86,4.52.31,7.14-1.64s5.5-5.34,8.68-10.16c.27-.4.64-1.04,1.1-1.92.47-.87.79-1.47.95-1.8.12.27.44.84.99,1.68.54.85.97,1.43,1.26,1.71,1.86,2.32,3.69,3.86,5.51,4.68,1.81.8,3.63.91,5.43.31.54-.21.88-.52,1.05-.9.15-.39.18-.86.07-1.41ZM147.67,193.76c-.85,1.92-2.04,4.04-3.58,6.38-1.54,2.36-3.1,4.52-4.69,6.52-1.18,1.4-2.32,2.43-3.44,3.09-1.12.66-1.72.8-1.8.4.42-2.24.81-3.97,1.15-5.21.92-2.98,1.97-5.75,3.14-8.3,1.18-2.57,2.34-4.66,3.51-6.29,1.15-1.63,2.1-2.52,2.83-2.66.45-.09,1.05.05,1.78.39.74.35,1.52,1.11,2.34,2.28l-1.25,3.39Z"/><path class="cls-4" d="M179.26,178.86h-1.51v-2.36c.45.46.82.95,1.14,1.48l.28.46.08.41Z"/><path class="cls-3" d="M199.85,194.06c-.05.46-.14.94-.31,1.46-.28.91-.69,1.79-1.21,2.65-.53.86-1.15,1.6-1.87,2.2-.73.61-1.48.99-2.27,1.15-.72.14-1.6-.06-2.65-.61-1.04-.54-1.85-1.22-2.41-2.05-.34-.57-.6-1.21-.78-1.94-.14-.57-.34-1.52-.61-2.86-.07-.35-.15-.74-.24-1.15l-.61-3.11c-.18-.9-.51-1.11-.97-.64-.46.47-.82.87-1.11,1.22-.69.9-1.4,1.91-2.14,3.04-.13.21-.27.42-.41.64-.59.93-1.2,1.9-1.81,2.86-2.05,3.2-3.79,5.62-5.24,7.25-1.45,1.63-2.49,2.5-3.1,2.61-.22.05-.58-.05-1.06-.27-.48-.21-.86-.42-1.13-.6-.47-.37-.8-.78-.98-1.2-.18-.44-.41-1.43-.73-3-.35-1.79-.38-3.8-.07-6.05.07-.48.15-1.02.25-1.6.37-2.07.92-4.75,1.7-8l1.59-6.43c.14-.49.28-.87.44-1.13.15-.26.29-.52.41-.78.22-.05.51-.11.84-.18.45-.08.95.09,1.51.54.55.44,1,.94,1.35,1.52.14.73.19,1.5.15,2.32-.04.82-.49,2.14-1.35,3.95-.27.69-.59,1.83-.94,3.42-.35,1.58-.53,2.93-.54,4.04-.05.06-.12.29-.19.73,0,.01-.01.02-.01.05-.08.45-.18.95-.27,1.5-.09.54-.21,1.06-.34,1.55l-.05,1.93,3.24-5.03,1.22-1.9c2.11-3.14,3.86-5.45,5.26-6.89,1.4-1.45,2.59-2.18,3.58-2.2.99-.02,1.95.58,2.9,1.79.51.54.91,1.02,1.2,1.46.28.44.54,1.04.75,1.81s.39,1.97.53,3.56l.47,2.37.57,2.84c.8-.39,1.44-.73,1.9-1.02.46-.29.95-.61,1.47-.94.4-.29.87-.58,1.41-.87.07-.04.14-.08.22-.12.64-.32,1.45-.62,2.44-.87.04.32.05.65.01.99Z"/><g class="cls-5"><path class="cls-4" d="M168.66,57.07c-.08,0-.15-.01-.23-.05-.3-.13-.44-.47-.32-.77,3.16-7.53,9.64-11.21,13.22-12.73.3-.13.65.01.77.31.13.3-.01.65-.31.77-3.42,1.45-9.6,4.95-12.6,12.1-.09.23-.31.36-.54.36Z"/></g></svg>